<svg xmlns="http://www.w3.org/2000/svg" xmlns:xlink="http://www.w3.org/1999/xlink" viewBox="0 0 202.85 198"><defs><style>.cls-1,.cls-2{fill-rule:evenodd;opacity:0.05;isolation:isolate;}.cls-1{fill:url(#Degradado_sin_nombre_2);}.cls-2{fill:url(#Degradado_sin_nombre_2-2);}.cls-3{fill:url(#Degradado_sin_nombre_34);}</style><linearGradient id="Degradado_sin_nombre_2" x1="1557.45" y1="-1918.19" x2="1558.32" y2="-1916.63" gradientTransform="matrix(113.62, 0, 0, -110.68, -176892.54, -212104.19)" gradientUnits="userSpaceOnUse"><stop offset="0" stop-color="#6072ff"/><stop offset="1" stop-color="#6a24a6"/></linearGradient><linearGradient id="Degradado_sin_nombre_2-2" x1="1557.19" y1="-1918.05" x2="1558.06" y2="-1916.49" gradientTransform="matrix(113.6, 0, 0, -110.67, -176866.44, -212089.55)" xlink:href="#Degradado_sin_nombre_2"/><linearGradient id="Degradado_sin_nombre_34" x1="47.24" y1="99" x2="155.61" y2="99" gradientUnits="userSpaceOnUse"><stop offset="0" stop-color="#5b3bf8"/><stop offset="1" stop-color="#4ac3e9"/></linearGradient></defs><title>Recurso 10</title><g id="Capa_2" data-name="Capa 2"><g id="Capa_1-2" data-name="Capa 1"><path class="cls-1" d="M101.55,198q-151.95,0-76-131.57t151.94,0Q253.49,198,101.55,198Z"/><path class="cls-2" d="M101.29,0q151.92,0,76,131.58t-151.93,0Q-50.63,0,101.29,0Z"/><path class="cls-3" d="M153.8,49.28H126.71a1.81,1.81,0,0,0-1.81,1.8,1.85,1.85,0,0,0,.53,1.28l7.76,7.75L129.34,64a46.28,46.28,0,0,0-27.92-9.26,46.88,46.88,0,0,0-45.11,59.92L47.86,122a1.81,1.81,0,0,0-.2,2.52l9,10.83a1.81,1.81,0,0,0,1.25.65h.14a1.82,1.82,0,0,0,1.2-.45l5.33-4.75a46.92,46.92,0,0,0,76-54.92l4.15-4.15,7.76,7.75a1.81,1.81,0,0,0,3.08-1.27V51.08A1.81,1.81,0,0,0,153.8,49.28Zm-52.38,9a43.59,43.59,0,0,1,9,1v3.54a.92.92,0,0,1-.91.91h-7.22a4.52,4.52,0,0,0-4.52,4.51v3.61a.9.9,0,0,1-.9.91H89.68a.91.91,0,0,1-.9-.91,4.51,4.51,0,0,0-4.51-4.51H82.46a4.53,4.53,0,0,0-4.52,4.51v5.42a.9.9,0,0,1-.9.91H65A43.32,43.32,0,0,1,101.42,58.31ZM60,89H71.62a.91.91,0,0,1,.91.91v1.8a.92.92,0,0,1-.91.91h-1.8a4.51,4.51,0,0,0-4.52,4.51.9.9,0,0,1-.9.9H58.24A43.38,43.38,0,0,1,60,89Zm4.44,12.65a4.53,4.53,0,0,0,4.51-4.52.9.9,0,0,1,.91-.9h1.8a4.53,4.53,0,0,0,4.52-4.52v-1.8a4.52,4.52,0,0,0-4.52-4.52H61.25c.5-1.23,1.06-2.44,1.67-3.61H77a4.53,4.53,0,0,0,4.52-4.52V71.85a.9.9,0,0,1,.9-.9h1.81a.91.91,0,0,1,.9.9,4.51,4.51,0,0,0,4.51,4.52h7.23a4.51,4.51,0,0,0,4.51-4.52V68.24a.91.91,0,0,1,.91-.9h7.22a4.53,4.53,0,0,0,4.52-4.52V60.21a42.88,42.88,0,0,1,12.69,6.33L99.62,93.68l-7.76-7.75a1.81,1.81,0,0,0-2.46-.09L59.34,112a42.83,42.83,0,0,1-1.26-10.33ZM80,139.31a43.58,43.58,0,0,1-12.7-10.94l11.76-10.46h9.7a1.81,1.81,0,0,1,1.81,1.81A5.45,5.45,0,0,0,96,125.14a1.83,1.83,0,0,1,1.8,1.8v3.61a1.81,1.81,0,0,1-1.8,1.81H88.78A9,9,0,0,0,80,139.31ZM101.61,145a9,9,0,0,1,8.85-7.22h5.41a5.42,5.42,0,0,0,0-10.84h-4.51a.9.9,0,1,1,0-1.8h26.47A43.34,43.34,0,0,1,101.61,145Zm38.32-23.48H111.36a4.52,4.52,0,1,0,0,9h4.51a1.81,1.81,0,1,1,0,3.62h-5.41A12.66,12.66,0,0,0,98,144.85,43.38,43.38,0,0,1,83.4,141,5.41,5.41,0,0,1,88.78,136H96a5.41,5.41,0,0,0,5.41-5.42v-3.61A5.45,5.45,0,0,0,96,121.52a1.78,1.78,0,0,1-1.29-.55,1.73,1.73,0,0,1-.52-1.25,5.42,5.42,0,0,0-5.42-5.42H83.15l7.37-6.55,7.82,7.83a1.81,1.81,0,0,0,2.55,0h0L122,94.43h7.38a2.71,2.71,0,1,1,0,5.42H123.1a5.42,5.42,0,1,0,0,10.84h20.72A43,43,0,0,1,139.93,121.52Zm2.57-33.73a42.91,42.91,0,0,1,1.92,19.28H123.1a1.81,1.81,0,0,1,0-3.61h6.32a6.32,6.32,0,1,0,0-12.64h-3.77l3.61-3.61h13C142.35,87.4,142.43,87.59,142.5,87.79Zm-1.7-4.2h-7.92L138,78.46A43.87,43.87,0,0,1,140.8,83.59ZM152,73.82l-5.95-5.95a1.79,1.79,0,0,0-2.55,0h0L99.62,111.74,91.86,104a1.79,1.79,0,0,0-2.47-.07L58.27,131.58l-6.7-8.05L90.5,89.67l7.84,7.84a1.79,1.79,0,0,0,2.55,0h0L137,61.39a1.81,1.81,0,0,0,0-2.55h0l-6-6H152Z"/></g></g></svg>