<svg xmlns="http://www.w3.org/2000/svg" xmlns:xlink="http://www.w3.org/1999/xlink" viewBox="0 0 202.85 198"><defs><style>.cls-1,.cls-2{fill-rule:evenodd;opacity:0.05;isolation:isolate;}.cls-1{fill:url(#Degradado_sin_nombre_2);}.cls-2{fill:url(#Degradado_sin_nombre_2-2);}.cls-3{fill:url(#Degradado_sin_nombre_34);}.cls-4{fill:url(#Degradado_sin_nombre_34-2);}.cls-5{fill:url(#Degradado_sin_nombre_34-3);}.cls-6{fill:url(#Degradado_sin_nombre_34-4);}</style><linearGradient id="Degradado_sin_nombre_2" x1="2433.18" y1="-1918.19" x2="2434.04" y2="-1916.63" gradientTransform="matrix(113.62, 0, 0, -110.68, -276389.36, -212104.19)" gradientUnits="userSpaceOnUse"><stop offset="0" stop-color="#6072ff"/><stop offset="1" stop-color="#6a24a6"/></linearGradient><linearGradient id="Degradado_sin_nombre_2-2" x1="2432.92" y1="-1918.05" x2="2433.78" y2="-1916.49" gradientTransform="matrix(113.6, 0, 0, -110.67, -276348.53, -212089.55)" xlink:href="#Degradado_sin_nombre_2"/><linearGradient id="Degradado_sin_nombre_34" x1="234.45" y1="-4.96" x2="-12.41" y2="198.1" gradientUnits="userSpaceOnUse"><stop offset="0" stop-color="#5b3bf8"/><stop offset="1" stop-color="#4ac3e9"/></linearGradient><linearGradient id="Degradado_sin_nombre_34-2" x1="225.63" y1="-15.67" x2="-21.22" y2="187.39" xlink:href="#Degradado_sin_nombre_34"/><linearGradient id="Degradado_sin_nombre_34-3" x1="263.36" y1="30.19" x2="16.51" y2="233.25" xlink:href="#Degradado_sin_nombre_34"/><linearGradient id="Degradado_sin_nombre_34-4" x1="229.2" y1="-11.34" x2="-17.66" y2="191.72" xlink:href="#Degradado_sin_nombre_34"/></defs><title>Recurso 13</title><g id="Capa_2" data-name="Capa 2"><g id="Capa_1-2" data-name="Capa 1"><path class="cls-1" d="M101.55,198q-151.95,0-76-131.57t151.94,0Q253.49,198,101.55,198Z"/><path class="cls-2" d="M101.29,0q151.92,0,76,131.58t-151.93,0Q-50.63,0,101.29,0Z"/><path class="cls-3" d="M165,112.31,151.37,58.74c-1.72-7.94-10-15-18-15.4A16.55,16.55,0,0,0,121,48.08a19.32,19.32,0,0,0-5.73,11.15H87.57a19.35,19.35,0,0,0-5.73-11.15,16.61,16.61,0,0,0-12.35-4.74c-8,.4-16.29,7.46-18,15.32L37.81,112.31a27.27,27.27,0,1,0,50,15.1h27.27a27.28,27.28,0,1,0,50-15.1ZM124.14,51.38a12.23,12.23,0,0,1,8.42-3.52h0l.57,0c5.36.27,12.4,5.38,13.82,11.91l11.67,45.75c-.33-.24-.65-.47-1-.69l-.31-.21-.68-.43-.48-.29-.52-.3-.58-.32-.4-.2a25.13,25.13,0,0,0-2.65-1.18l0,0-.88-.31-.23-.08-.85-.26-.26-.08-.87-.23-.13,0c-.55-.14-1.1-.25-1.67-.35l-.41-.07-.64-.1-.64-.08-.56,0q-.39,0-.78-.06l-.46,0q-.63,0-1.26,0c-.42,0-.84,0-1.25,0h-.28q-.6,0-1.2.09l-.19,0-1.09.14-.22,0-1.16.21-.25.06c-.37.07-.74.16-1.1.25l-.09,0q-.58.15-1.14.33l-.26.08-1.11.37-.14.06c-.33.12-.66.25-1,.39l-.24.09-1,.47-.22.11-.92.47-.16.09-1,.56-.24.15c-.33.2-.65.41-1,.62l-.09.06c-.3.2-.59.41-.87.62l-.22.16c-.3.23-.6.46-.88.7l-.18.15c-.26.21-.51.43-.76.65l-.16.15c-.28.25-.55.51-.81.77l-.2.2c-.26.26-.51.52-.76.8l0,0c-.26.28-.51.57-.76.87l-.17.21c-.24.29-.47.59-.7.89a1.71,1.71,0,0,1-.11.14l-.6.86-.12.17a.83.83,0,0,0-.08.12V62.09A14.83,14.83,0,0,1,124.14,51.38Zm-9.08,57.85H87.79V63.77h27.27ZM55.91,59.71c1.4-6.45,8.45-11.56,13.81-11.83a12.2,12.2,0,0,1,9,3.5,14.8,14.8,0,0,1,4.54,10.71v50.26a.83.83,0,0,0-.08-.12l-.12-.17c-.2-.29-.4-.58-.61-.86l-.1-.14c-.23-.3-.46-.6-.7-.89l-.17-.21c-.25-.29-.5-.59-.76-.87l0,0c-.25-.27-.5-.54-.76-.8l-.2-.2c-.26-.26-.53-.52-.81-.77l-.16-.15-.76-.66-.18-.14-.88-.7-.22-.16c-.28-.21-.58-.42-.87-.62l-.09-.06c-.31-.21-.63-.42-1-.62l-.24-.15c-.32-.19-.65-.38-1-.56l-.15-.09-.92-.47-.22-.11-1-.47-.24-.09c-.32-.14-.65-.27-1-.39l-.14-.06-1.11-.37-.26-.08c-.38-.12-.75-.23-1.14-.33l-.09,0c-.36-.09-.73-.18-1.1-.25l-.25-.06-1.16-.21-.22,0-1.09-.14-.19,0q-.6-.06-1.2-.09h-.28c-.41,0-.83,0-1.25,0s-.84,0-1.26,0l-.46,0q-.39,0-.78.06l-.56,0-.64.08-.64.1-.42.07c-.55.1-1.11.21-1.65.35l-.14,0-.86.23-.27.08-.84.26-.25.08-.86.31-.07,0q-1,.38-1.92.81h0l-.66.33-.44.23-.55.3q-.28.15-.57.33l-.43.25-.78.5-.21.14c-.33.23-.67.46-1,.71Zm4.6,90.43A22.72,22.72,0,0,1,42,114.32l.54-.73.3-.38c.16-.21.34-.41.51-.62l.32-.36c.22-.25.46-.5.69-.74l.36-.36.68-.63.37-.32.6-.5.37-.3.72-.53.28-.19a21.8,21.8,0,0,1,2.22-1.34l.13-.07,1.06-.52.15-.06c.38-.18.77-.34,1.16-.49h0a23.06,23.06,0,0,1,3.84-1.09l.25,0,1-.16.34,0c.32,0,.65-.07,1-.09l.34,0c.43,0,.87,0,1.3,0a22.73,22.73,0,1,1,0,45.46Zm43.19-27.28v-4.54a2.28,2.28,0,0,0-4.55,0v4.54H87.79v-9.09h27.27v9.09Zm38.64,27.28a22.73,22.73,0,0,1,0-45.46h.4c.29,0,.57,0,.85,0l.52,0,.8.07.46.06c.29,0,.59.08.88.14l.36.06c.37.07.73.15,1.09.24l.14,0a22.66,22.66,0,0,1,2.54.8l.12,0c.36.13.72.28,1.07.44l.21.1c.33.15.66.31,1,.48l.2.1a23,23,0,0,1,2.18,1.32l.32.22.68.5.4.31.58.49.39.33.66.62.35.36c.24.24.48.49.71.75l.31.35c.18.21.36.42.53.64l.28.36c.19.25.38.5.56.76a22.71,22.71,0,0,1-18.57,35.8Z"/><path class="cls-4" d="M101.42,104.68a2.28,2.28,0,0,0,2.28-2.27V70.59a2.28,2.28,0,0,0-4.55,0v31.82A2.27,2.27,0,0,0,101.42,104.68Z"/><path class="cls-5" d="M142.34,109.23a2.27,2.27,0,1,0,0,4.54,13.64,13.64,0,1,1-13.64,13.64,2.28,2.28,0,0,0-4.55,0,18.19,18.19,0,1,0,18.19-18.18Z"/><path class="cls-6" d="M74.15,127.41a13.64,13.64,0,1,1-13.64-13.64,2.27,2.27,0,1,0,0-4.54A18.18,18.18,0,1,0,78.7,127.41a2.28,2.28,0,0,0-4.55,0Z"/></g></g></svg>