<svg xmlns="http://www.w3.org/2000/svg" xmlns:xlink="http://www.w3.org/1999/xlink" viewBox="0 0 202.85 198"><defs><style>.cls-1,.cls-2{fill-rule:evenodd;opacity:0.05;isolation:isolate;}.cls-1{fill:url(#Degradado_sin_nombre_2);}.cls-2{fill:url(#Degradado_sin_nombre_2-2);}.cls-3{fill:url(#Degradado_sin_nombre_34);}</style><linearGradient id="Degradado_sin_nombre_2" x1="1849.36" y1="-1918.19" x2="1850.22" y2="-1916.63" gradientTransform="matrix(113.62, 0, 0, -110.68, -210058.15, -212104.19)" gradientUnits="userSpaceOnUse"><stop offset="0" stop-color="#6072ff"/><stop offset="1" stop-color="#6a24a6"/></linearGradient><linearGradient id="Degradado_sin_nombre_2-2" x1="1849.1" y1="-1918.05" x2="1849.97" y2="-1916.49" gradientTransform="matrix(113.6, 0, 0, -110.67, -210027.14, -212089.55)" xlink:href="#Degradado_sin_nombre_2"/><linearGradient id="Degradado_sin_nombre_34" x1="40.06" y1="99" x2="162.79" y2="99" gradientUnits="userSpaceOnUse"><stop offset="0" stop-color="#5b3bf8"/><stop offset="1" stop-color="#4ac3e9"/></linearGradient></defs><title>Recurso 11</title><g id="Capa_2" data-name="Capa 2"><g id="Capa_1-2" data-name="Capa 1"><path class="cls-1" d="M101.55,198q-151.95,0-76-131.57t151.94,0Q253.49,198,101.55,198Z"/><path class="cls-2" d="M101.29,0q151.92,0,76,131.58t-151.93,0Q-50.63,0,101.29,0Z"/><path class="cls-3" d="M162.79,98.62a25.7,25.7,0,0,0-33.65-24.47V70.69a13.84,13.84,0,0,0,4-9.68v-4c0-.43,0-.86-.07-1.28l2.61-3.91a8.44,8.44,0,0,0-3.25-12.22L129.14,38v3.21a7.6,7.6,0,0,1-1.69,4.7,13.75,13.75,0,0,0-16.42,0,7.6,7.6,0,0,1-1.69-4.7V38l-3.26,1.63a8.43,8.43,0,0,0-3.24,12.22l2.61,3.91c0,.42-.07.85-.07,1.28v4a13.82,13.82,0,0,0,4,9.68v4.57L99.28,77.49a9.84,9.84,0,0,0-7.75,9.67V96.8l-.31,0a9.9,9.9,0,0,0-3.48-1.54L77.67,93.07V88.5a13.77,13.77,0,0,0,4-9.67v-4a13.86,13.86,0,1,0-27.71,0v4a13.77,13.77,0,0,0,4,9.67v4.57L47.81,95.31A9.85,9.85,0,0,0,40.06,105v19.38H83.61v4.35l-10.07,2.24a9.84,9.84,0,0,0-7.74,9.66V160h55.42V140.6a9.85,9.85,0,0,0-7.75-9.66L103.4,128.7v-4.57a13.77,13.77,0,0,0,4-9.67v-4a13.59,13.59,0,0,0-.58-4h5.8a25.85,25.85,0,0,0,16.56,16.55v5.22h-4v4h4v19.8a7.92,7.92,0,0,0,15.83,0v-19.8h4v-4h-4v-5.22A25.76,25.76,0,0,0,162.79,98.62ZM119.11,80.21l-5.81-4.35V73.51a13.65,13.65,0,0,0,11.88,0v2.31A25.92,25.92,0,0,0,119.11,80.21Zm-3.65,4.46-1.79-3.59,2.83,2.12C116.14,83.68,115.79,84.16,115.46,84.67Zm17-39.76a4.47,4.47,0,0,1-.13,4.75l-.76,1.14a14.7,14.7,0,0,0-1.3-2.07A11.66,11.66,0,0,0,132.48,44.91Zm-3.34,12.14v4a9.9,9.9,0,0,1-19.8,0v-4a9.9,9.9,0,0,1,19.8,0Zm-23-7.39a4.47,4.47,0,0,1-.13-4.75,11.48,11.48,0,0,0,2.19,3.82,14.7,14.7,0,0,0-1.3,2.07Zm-38.36,43a13.73,13.73,0,0,0,5.94-1.35v2.34l-5.94,4.46-5.93-4.46V91.32A13.59,13.59,0,0,0,67.77,92.68Zm-3,8.13-2.06,2.06-1.6-4.8Zm9.69-2.74-1.6,4.8-2.06-2.06ZM57.88,74.87a9.9,9.9,0,1,1,19.79,0v4a9.9,9.9,0,0,1-19.79,0ZM44,105a5.91,5.91,0,0,1,4.65-5.8l8-1.78L61,110.2l6.8-6.8,6.81,6.8,4.27-12.81,7,1.56a13.85,13.85,0,0,0-6.22,11.55v4A13.73,13.73,0,0,0,81,120.39H44Zm46.47,31.47-2,2.06-1.61-4.8Zm9.69-2.74-1.6,4.8-2.06-2.06Zm-.73-4.4-5.94,4.46-5.94-4.46V127a13.6,13.6,0,0,0,5.94,1.36A13.8,13.8,0,0,0,99.45,127Zm17.81,11.3V156H69.75V140.6a5.92,5.92,0,0,1,4.65-5.8l8-1.78,4.27,12.81,6.81-6.8,6.8,6.8L104.58,133l8,1.79A5.89,5.89,0,0,1,117.26,140.6ZM103.4,114.46a9.9,9.9,0,0,1-19.79,0v-4a9.9,9.9,0,1,1,19.79,0Zm1.46-11.88a13.86,13.86,0,0,0-9.37-5.78V87.16a5.9,5.9,0,0,1,4.65-5.8l8.32-1.85L113.21,89a25.49,25.49,0,0,0-1.89,9.62,25.91,25.91,0,0,0,.34,4Zm10.42-4a21.78,21.78,0,1,1,21.77,21.77A21.8,21.8,0,0,1,115.28,98.62ZM141,152.07a4,4,0,0,1-7.91,0v-19.8H141Zm0-23.76H133.1V124a23.87,23.87,0,0,0,7.91,0Z"/></g></g></svg>