<svg xmlns="http://www.w3.org/2000/svg" xmlns:xlink="http://www.w3.org/1999/xlink" viewBox="0 0 202.85 198"><defs><style>.cls-1,.cls-2{fill-rule:evenodd;opacity:0.05;isolation:isolate;}.cls-1{fill:url(#Degradado_sin_nombre_2);}.cls-2{fill:url(#Degradado_sin_nombre_2-2);}.cls-3{fill:url(#Degradado_sin_nombre_34);}.cls-4{fill:url(#Degradado_sin_nombre_34-2);}.cls-5{fill:url(#Degradado_sin_nombre_34-3);}</style><linearGradient id="Degradado_sin_nombre_2" x1="1265.54" y1="-1918.19" x2="1266.41" y2="-1916.63" gradientTransform="matrix(113.62, 0, 0, -110.68, -143726.93, -212104.19)" gradientUnits="userSpaceOnUse"><stop offset="0" stop-color="#6072ff"/><stop offset="1" stop-color="#6a24a6"/></linearGradient><linearGradient id="Degradado_sin_nombre_2-2" x1="1265.29" y1="-1918.05" x2="1266.15" y2="-1916.49" gradientTransform="matrix(113.6, 0, 0, -110.67, -143705.74, -212089.55)" xlink:href="#Degradado_sin_nombre_2"/><linearGradient id="Degradado_sin_nombre_34" x1="44.05" y1="124.05" x2="158.8" y2="124.05" gradientUnits="userSpaceOnUse"><stop offset="0" stop-color="#5b3bf8"/><stop offset="1" stop-color="#4ac3e9"/></linearGradient><linearGradient id="Degradado_sin_nombre_34-2" x1="95.43" y1="119.37" x2="99.96" y2="119.37" xlink:href="#Degradado_sin_nombre_34"/><linearGradient id="Degradado_sin_nombre_34-3" x1="53.84" y1="66.3" x2="143.59" y2="66.3" xlink:href="#Degradado_sin_nombre_34"/></defs><title>Recurso 9</title><g id="Capa_2" data-name="Capa 2"><g id="Capa_1-2" data-name="Capa 1"><path class="cls-1" d="M101.55,198q-151.95,0-76-131.57t151.94,0Q253.49,198,101.55,198Z"/><path class="cls-2" d="M101.29,0q151.92,0,76,131.58t-151.93,0Q-50.63,0,101.29,0Z"/><path class="cls-3" d="M156.09,95.29a10.37,10.37,0,0,0-6.41-2.69,9.15,9.15,0,0,0-7.05,2.69l-12.76,12.62a7.59,7.59,0,0,0-.87-1.23,8.28,8.28,0,0,0-6.46-2.89H104.68a36.73,36.73,0,0,1-9.77-1.3,24.05,24.05,0,0,0-22.41,4.74,32.8,32.8,0,0,0-5.84,6.27l-3.2-3.11a2.27,2.27,0,0,0-1.58-.64h0a2.3,2.3,0,0,0-1.62.7L44.68,126.61a2.26,2.26,0,0,0,.07,3.2l26.33,25.07a2.25,2.25,0,0,0,1.56.63,2.21,2.21,0,0,0,1.61-.69L89.68,139a2.28,2.28,0,0,0,.64-1.63,2.25,2.25,0,0,0-.69-1.58l-1.34-1.3,3.07-.35a48.06,48.06,0,0,1,5.63-.33h27.17a20.35,20.35,0,0,0,11.15-2.87.18.18,0,0,0,.07-.05,14.89,14.89,0,0,0,2.88-2.61l18.32-21.55C159.71,103.05,159.52,98.45,156.09,95.29ZM72.58,150.07l-23.07-22L61.94,115.2l22.93,22.26Zm80.56-46.26-18.32,21.55a10.27,10.27,0,0,1-2,1.8,16,16,0,0,1-8.68,2.14H97a52.29,52.29,0,0,0-6.14.36l-6.76.75L70,116.68a28.27,28.27,0,0,1,5.41-6,19.44,19.44,0,0,1,18.35-3.89,41.07,41.07,0,0,0,11,1.46h17.86c3.21,0,4.07,2.78,4.07,4.42a4.92,4.92,0,0,1-1.06,3.14,3.87,3.87,0,0,1-3.08,1.29H106.92a2.26,2.26,0,1,0,0,4.51h15.55a8.36,8.36,0,0,0,6.52-2.88,9.35,9.35,0,0,0,2.13-5.75l14.69-14.54a5.28,5.28,0,0,1,7.22.12C154,99.48,155.25,101.32,153.14,103.81Z"/><path class="cls-4" d="M99.88,118.81a2.25,2.25,0,1,0-4.39,1l0,.09a2.25,2.25,0,0,0,2.19,1.74,2.31,2.31,0,0,0,.52-.06,2.24,2.24,0,0,0,1.68-2.71Z"/><path class="cls-5" d="M59.31,90.12h22a5.41,5.41,0,0,0,3.21-1.05,5.41,5.41,0,0,0,3.21,1.05h22a5.41,5.41,0,0,0,3.21-1.05,5.41,5.41,0,0,0,3.21,1.05h22a5.47,5.47,0,0,0,5.46-5.47V74.4a11.85,11.85,0,0,0-6.44-10.59,13,13,0,1,0-20.05,0,12,12,0,0,0-4.18,3.59,11.8,11.8,0,0,0-4.18-3.59,13,13,0,1,0-20,0,11.8,11.8,0,0,0-4.18,3.59,11.8,11.8,0,0,0-4.18-3.59,13,13,0,1,0-20,0A11.85,11.85,0,0,0,53.84,74.4V84.65A5.47,5.47,0,0,0,59.31,90.12ZM127.13,47a8.51,8.51,0,1,1-8.51,8.5A8.51,8.51,0,0,1,127.13,47ZM115.18,74.4a7.34,7.34,0,0,1,6.08-7.27,13,13,0,0,0,11.73,0,7.34,7.34,0,0,1,6.09,7.27V84.65a1,1,0,0,1-1,.95h-22a1,1,0,0,1-.95-.95ZM98.72,47a8.51,8.51,0,1,1-8.51,8.5A8.51,8.51,0,0,1,98.72,47Zm-12,27.39a7.34,7.34,0,0,1,6.08-7.27,13,13,0,0,0,11.73,0,7.34,7.34,0,0,1,6.09,7.27V84.65a1,1,0,0,1-1,.95h-22a.94.94,0,0,1-1-.95ZM70.3,47a8.51,8.51,0,1,1-8.5,8.5A8.51,8.51,0,0,1,70.3,47ZM58.36,74.4a7.33,7.33,0,0,1,6.08-7.27,13,13,0,0,0,11.73,0,7.33,7.33,0,0,1,6.08,7.27V84.65a.94.94,0,0,1-1,.95h-22a.94.94,0,0,1-1-.95Z"/></g></g></svg>