<svg xmlns="http://www.w3.org/2000/svg" xmlns:xlink="http://www.w3.org/1999/xlink" viewBox="0 0 1069.58 1052"><defs><style>.cls-1{opacity:0.16;fill:url(#Degradado_sin_nombre_7);}</style><linearGradient id="Degradado_sin_nombre_7" x1="173.25" y1="101.24" x2="1149.76" y2="742.28" gradientUnits="userSpaceOnUse"><stop offset="0" stop-color="#5b3bf5"/><stop offset="0.53" stop-color="#5284ed"/><stop offset="1" stop-color="#4ac0e6"/></linearGradient></defs><title>Recurso 9</title><g id="Capa_2" data-name="Capa 2"><g id="Capa_1-2" data-name="Capa 1"><path class="cls-1" d="M1069.58,66.53V942.78c-4.59-.22-6.48,3.32-8.79,6.28h0c-3.18.31-4.72,2.68-6.28,5h0c-1.59,0-2.63,1-3.81,1.89a453.36,453.36,0,0,1-58,37.82c-11.15,6.08-22.37,12-33.56,18a66,66,0,0,0-7.08,2.35,402.51,402.51,0,0,1-69.85,24.75c-18.49,4.67-37,9.1-56.14,10.56-2.21.54-5.46-1.52-6.27,2.51H744.43c-1.62-4.81-5.7-2-8.57-2.59a533,533,0,0,1-84.32-22.52c-1.32-1.83-3.29-1.08-5-1.26a3.8,3.8,0,0,0-3.77-2.5c-1.31-1.84-3.28-1.08-5-1.27-1.33-2.51-3.69-3.32-6.28-3.75-5.9-3.74-11.77-7.53-18.83-8.8-1.59-3-5-3.37-7.53-5-.9-1.48-2.39-1.22-3.76-1.27-.92-2.26-3.19-2.72-5-3.76-.9-1.47-2.38-1.21-3.76-1.26a2.61,2.61,0,0,0-2.52-1.25h-1.24c-.19-3.24-2.33-3.88-5-3.77H582.5a2.31,2.31,0,0,0-2.52-2.51h-1.25a2.3,2.3,0,0,0-2.52-2.51H575a2.3,2.3,0,0,0-2.52-2.51H571.2a2.61,2.61,0,0,0-1.26-2.51,3.81,3.81,0,0,0-3.77-2.51,2.56,2.56,0,0,0-2.5-1.25h0a7.85,7.85,0,0,0-3.77-3.77,440.23,440.23,0,0,0-5-2.51h-1.24a11.66,11.66,0,0,0-6.29-6.28,4.34,4.34,0,0,0-2.51-2.51,3.8,3.8,0,0,0-3.76-2.51c-4.46-4.87-9.16-9.43-15.07-12.55h0c-2.92-3.41-5.3-7.46-10-8.79L514.7,939c-2.92-3.42-5.29-7.46-10-8.79L503.41,929c-2.93-3.41-5.3-7.45-10.05-8.79l-1.25-1.25c-2.48-3-4.51-6.6-8.79-7.53h0c-4.35-5.89-10.06-10.17-16.32-13.81h0c-1.56-2.34-3.09-4.71-6.28-5h0c-1.68-1.84-3.13-4-5.07-5.48-22.46-17.47-44.81-35.08-67.74-52C335.29,796.37,280.59,760.63,227.18,723c-18.53-13-37-26.17-54.88-40.1-6.65-5.18-12.64-11.37-20.4-15.08h0c-2.31-3-4.2-6.5-8.78-6.27h0a10,10,0,0,0-7.54-7.54h0c-3.38-3.78-6-8.38-11.3-10a7.89,7.89,0,0,0-3.76-3.76A351.12,351.12,0,0,0,92.9,612.62a4.32,4.32,0,0,0-2.51-2.51c-1.33-4.75-5.38-7.12-8.79-10h0c0-1.6-.89-2.69-1.9-3.8-7.27-8-13.53-16.83-19.74-25.66A313.59,313.59,0,0,1,13.18,470.39c-5.24-19.61-9.66-39.47-10.67-59.88C2,408.29,4,405.05,0,404.23V321.37c2-1.92,4-15.34,2.37-17.2C2,303.71.81,303.91,0,303.8V300c5.42-.87,4.47-5.8,4.81-8.93a334.1,334.1,0,0,1,17.7-76.93q30.39-84.9,105-135.41c38.17-25.94,80.32-43.1,124.73-54.83A646.57,646.57,0,0,1,363.72,4.77c4.22-.35,9.39.47,12.9-3.5,1.34.15,1.52,3.79,3.76,1.24h11.3C395,1.44,399.42,5,401.72,0H532.28c3.28,5.35,8.47,1.17,12.55,2.51,4.08-1.35,9.27,2.84,12.55-2.51h6.28c.28,2.67,2.37,3.44,4.43,3.63C583,5,597.87,6.25,612.75,7.53c10.35.9,20.72,1.54,31,2.75,19.14,2.25,38.25,4.78,57.36,7.29,22.41,2.95,44.84,5.74,67.18,9.09s44.61,7.23,66.89,11c26,4.38,51.9,8.89,77.86,13.34,18,3.08,35.91,6.56,54,9.13,19.91,2.84,39.71,6.46,59.81,7.94C1041.17,69.11,1055.46,70.78,1069.58,66.53Z"/></g></g></svg>