<svg xmlns="http://www.w3.org/2000/svg" xmlns:xlink="http://www.w3.org/1999/xlink" viewBox="0 0 580 931.51"><defs><style>.cls-1{opacity:0.16;fill:url(#Degradado_sin_nombre_33);}</style><linearGradient id="Degradado_sin_nombre_33" x1="64.91" y1="873.1" x2="470.87" y2="28.69" gradientUnits="userSpaceOnUse"><stop offset="0" stop-color="#5b3bf8"/><stop offset="1" stop-color="#4ac3e9"/></linearGradient></defs><title>Recurso 14</title><g id="Capa_2" data-name="Capa 2"><g id="Capa_1-2" data-name="Capa 1"><path class="cls-1" d="M135.7,0c165.19.9,392.38,125.69,315,320.53-12.21,30.73-27.56,60.9-31.39,93.74C405.24,534.74,544.74,557.25,572.7,658c26.39,95.11-21,194.7-106,241.81C208.06,1043.29-49.9,666,86,443c14-23,30.73-44.3,43.31-68.09,32.9-62.27,12.71-120.79-27.36-173.55C74,164.53-39.72,81,14.42,28.85c12.94-12.48,31-18,48.57-21.74A339.51,339.51,0,0,1,135.7,0Z"/></g></g></svg>