<svg xmlns="http://www.w3.org/2000/svg" xmlns:xlink="http://www.w3.org/1999/xlink" viewBox="0 0 202.85 198"><defs><style>.cls-1,.cls-2{fill-rule:evenodd;opacity:0.05;isolation:isolate;}.cls-1{fill:url(#Degradado_sin_nombre_2);}.cls-2{fill:url(#Degradado_sin_nombre_2-2);}.cls-3{fill:url(#Degradado_sin_nombre_34);}.cls-4{fill:url(#Degradado_sin_nombre_34-2);}</style><linearGradient id="Degradado_sin_nombre_2" x1="2141.27" y1="-1918.19" x2="2142.13" y2="-1916.63" gradientTransform="matrix(113.62, 0, 0, -110.68, -243223.76, -212104.19)" gradientUnits="userSpaceOnUse"><stop offset="0" stop-color="#6072ff"/><stop offset="1" stop-color="#6a24a6"/></linearGradient><linearGradient id="Degradado_sin_nombre_2-2" x1="2141.01" y1="-1918.05" x2="2141.87" y2="-1916.49" gradientTransform="matrix(113.6, 0, 0, -110.67, -243187.84, -212089.55)" xlink:href="#Degradado_sin_nombre_2"/><linearGradient id="Degradado_sin_nombre_34" x1="42.43" y1="99" x2="160.42" y2="99" gradientUnits="userSpaceOnUse"><stop offset="0" stop-color="#5b3bf8"/><stop offset="1" stop-color="#4ac3e9"/></linearGradient><linearGradient id="Degradado_sin_nombre_34-2" x1="91.59" y1="118.66" x2="111.26" y2="118.66" xlink:href="#Degradado_sin_nombre_34"/></defs><title>Recurso 12</title><g id="Capa_2" data-name="Capa 2"><g id="Capa_1-2" data-name="Capa 1"><path class="cls-1" d="M101.55,198q-151.95,0-76-131.57t151.94,0Q253.49,198,101.55,198Z"/><path class="cls-2" d="M101.29,0q151.92,0,76,131.58t-151.93,0Q-50.63,0,101.29,0Z"/><path class="cls-3" d="M101.42,40a59,59,0,1,0,59,59A59,59,0,0,0,101.42,40ZM66,56.86V69.5a7.87,7.87,0,1,0,15.73,0V67.25a9.8,9.8,0,0,0,7.33-7.17l1.09-4.35H67.42A54.81,54.81,0,0,1,99.46,44V97.87l-5.9,3.41V91.13A13.77,13.77,0,0,0,79.79,77.37H68A13.76,13.76,0,0,0,54.23,91.13v17.7H80.46l-27.66,16A55,55,0,0,1,66,56.86Zm11.8,10.67v2a3.94,3.94,0,0,1-7.87,0v-2ZM70,63.6V59.67H85.1a5.89,5.89,0,0,1-5.55,3.93Zm11.8,27.53V104.9H66V91.13H62.09V104.9H58.16V91.13A9.84,9.84,0,0,1,68,81.3H69.7L67.89,95.78l6,6,6-6L78.09,81.3h1.7a9.85,9.85,0,0,1,9.84,9.83v12.41l-2.36,1.36H85.69V91.13ZM72,94.36,73.66,81.3h.46l1.63,13.06-1.86,1.86Zm45.13,57.4c-1.29.39-2.6.73-3.94,1V142.26h-3.93v11.23a54.55,54.55,0,0,1-15.73,0V142.26H89.63v10.52c-1.33-.29-2.65-.63-3.94-1v-9.5a9.85,9.85,0,0,1,9.83-9.83h1.71l-1.81,14.48,6,6,6-6-1.81-14.48h1.7a9.86,9.86,0,0,1,9.84,9.83Zm-17.6-6.27,1.63-13.06h.47l1.63,13.06-1.87,1.86Zm21.53,4.93v-8.16a13.78,13.78,0,0,0-13.77-13.76H95.52a13.78,13.78,0,0,0-13.76,13.76v8.16a55.36,55.36,0,0,1-27-22.22l46.65-26.93,46.65,26.94A55.32,55.32,0,0,1,121.09,150.42Zm-2-84.85V75.4a8.22,8.22,0,0,0,.28,2h-2.24V69.5a9.83,9.83,0,0,1,19.66,0v7.87h-2.24a7.74,7.74,0,0,0,.28-2V65.57Zm13,15.73h2L127,88.38l-7.18-7.08h2A7.73,7.73,0,0,0,132.14,81.3Zm-9.08-5.9V69.5h7.86v5.9a3.93,3.93,0,1,1-7.86,0ZM127,93.89l8.11-8a14.32,14.32,0,0,1,1.63,1.38,13.79,13.79,0,0,1,4,9.75v7.87h-3.94V97h-3.93v7.87h-11.8V97h-3.93v7.87h-1.58l-2.36-1.36V97a13.78,13.78,0,0,1,5.67-11.12Zm-4.6,14.94h22.3V97a17.6,17.6,0,0,0-8.87-15.34l-.7-.39h5.64V69.5a13.77,13.77,0,1,0-27.54,0V81.3h5.64l-.7.39A17.75,17.75,0,0,0,109.29,97v4.24l-5.9-3.41V44a55,55,0,0,1,46.66,80.83Z"/><path class="cls-4" d="M111.26,118.66a9.84,9.84,0,1,0-9.84,9.84A9.83,9.83,0,0,0,111.26,118.66Zm-9.84,5.9a5.9,5.9,0,1,1,5.9-5.9A5.9,5.9,0,0,1,101.42,124.56Z"/></g></g></svg>