<svg xmlns="http://www.w3.org/2000/svg" xmlns:xlink="http://www.w3.org/1999/xlink" viewBox="0 0 1032.66 1120.91"><defs><style>.cls-1{fill-rule:evenodd;fill:url(#Degradado_sin_nombre_5);}.cls-2{fill:url(#Degradado_sin_nombre_55);}.cls-3{fill:url(#Degradado_sin_nombre_56);}.cls-4{fill:url(#Degradado_sin_nombre_66);}.cls-5{fill:#4173f4;}.cls-6{fill:url(#Degradado_sin_nombre_24);}.cls-7{fill:url(#Degradado_sin_nombre_55-2);}</style><linearGradient id="Degradado_sin_nombre_5" x1="2722.72" y1="-2268.53" x2="2721.99" y2="-2267.86" gradientTransform="matrix(1032.66, 0, 0, -1111, -2810995.57, -2519469.79)" gradientUnits="userSpaceOnUse"><stop offset="0" stop-color="#5b3bff"/><stop offset="1" stop-color="#2ec6ec"/></linearGradient><linearGradient id="Degradado_sin_nombre_55" x1="-63.62" y1="306.67" x2="169.83" y2="306.67" gradientTransform="matrix(0.95, -0.33, 0.33, 0.95, 176, -201.94)" gradientUnits="userSpaceOnUse"><stop offset="0.19" stop-color="#71c2f6"/><stop offset="0.3" stop-color="#65acf5"/><stop offset="0.43" stop-color="#5896f4"/><stop offset="0.51" stop-color="#548ef4"/><stop offset="0.62" stop-color="#4c83f4"/><stop offset="0.81" stop-color="#4477f4"/><stop offset="1" stop-color="#4173f4"/></linearGradient><linearGradient id="Degradado_sin_nombre_56" x1="-84.24" y1="233.68" x2="214.19" y2="323.16" gradientTransform="translate(262.97 -234.42)" gradientUnits="userSpaceOnUse"><stop offset="0" stop-color="#a6f89f"/><stop offset="0.07" stop-color="#98eab6"/><stop offset="0.19" stop-color="#87d8d2"/><stop offset="0.3" stop-color="#7bcce6"/><stop offset="0.41" stop-color="#73c4f2"/><stop offset="0.52" stop-color="#71c2f6"/><stop offset="0.6" stop-color="#74c6f0"/><stop offset="0.71" stop-color="#7ed0e0"/><stop offset="0.82" stop-color="#8ee0c6"/><stop offset="0.94" stop-color="#a3f6a3"/></linearGradient><linearGradient id="Degradado_sin_nombre_66" x1="437.14" y1="806.34" x2="430.18" y2="1000.49" gradientUnits="userSpaceOnUse"><stop offset="0.15" stop-color="#548ef4"/><stop offset="0.21" stop-color="#5d9ef5"/><stop offset="0.3" stop-color="#68b2f5"/><stop offset="0.4" stop-color="#6fbef6"/><stop offset="0.5" stop-color="#71c2f6"/><stop offset="0.61" stop-color="#6fbef6"/><stop offset="0.73" stop-color="#67b1f5"/><stop offset="0.86" stop-color="#5b9cf5"/><stop offset="0.94" stop-color="#5189f4"/></linearGradient><linearGradient id="Degradado_sin_nombre_24" x1="294.65" y1="795.07" x2="684.58" y2="963.82" gradientUnits="userSpaceOnUse"><stop offset="0" stop-color="#a6f89f"/><stop offset="0.15" stop-color="#99ebb4"/><stop offset="0.46" stop-color="#78c9ea"/><stop offset="0.52" stop-color="#71c2f6"/><stop offset="0.62" stop-color="#7acbe7"/><stop offset="0.81" stop-color="#91e4c0"/><stop offset="0.94" stop-color="#a3f6a3"/></linearGradient><linearGradient id="Degradado_sin_nombre_55-2" x1="401.71" y1="800.41" x2="391.73" y2="1078.99" gradientTransform="matrix(1, 0, 0, 1, 0, 0)" xlink:href="#Degradado_sin_nombre_55"/></defs><title>Recurso 18</title><g id="Capa_2" data-name="Capa 2"><g id="Capa_1-2" data-name="Capa 1"><path class="cls-1" d="M0,9.91l943,245c.42.21,167.29,48.33,44.69,300.27C929,675.7,890.84,754.39,867.08,803.42a177.49,177.49,0,0,1-109.29,92.79L0,1120.91Z"/><path class="cls-2" d="M205.77,78.61,219.41,118a335,335,0,0,0,113.66-16.22A335.09,335.09,0,0,0,440.58,43.31l-14.2-41Z"/><ellipse class="cls-3" cx="316.07" cy="40.44" rx="116.72" ry="14.1" transform="translate(4.15 105.59) rotate(-19.09)"/><rect class="cls-4" x="359.31" y="831.77" width="148.18" height="157.53"/><rect class="cls-5" x="433.4" y="910.53" width="148.18" height="157.53"/><polygon class="cls-6" points="359.31 831.77 433.4 910.53 581.58 910.53 507.49 831.77 359.31 831.77"/><polygon class="cls-7" points="359.31 989.3 433.4 1068.06 433.4 910.53 359.31 831.77 359.31 989.3"/></g></g></svg>