<svg id="Capa_1" data-name="Capa 1" xmlns="http://www.w3.org/2000/svg" xmlns:xlink="http://www.w3.org/1999/xlink" viewBox="0 0 348 440"><defs><style>.cls-1{fill:none;}.cls-2{fill:url(#Degradado_sin_nombre_34);}.cls-3{clip-path:url(#clip-path);}.cls-4,.cls-5{fill:#fff;}.cls-4,.cls-7{opacity:0.05;}.cls-4,.cls-5,.cls-7,.cls-8{isolation:isolate;}.cls-5,.cls-8{opacity:0.1;}.cls-6{clip-path:url(#clip-path-2);}.cls-7,.cls-8{fill:#8095b9;}</style><linearGradient id="Degradado_sin_nombre_34" x1="18.93" y1="-1698.9" x2="329.53" y2="-1988.54" gradientTransform="matrix(1, 0, 0, -1, 0, -1624)" gradientUnits="userSpaceOnUse"><stop offset="0" stop-color="#5b3bf8"/><stop offset="1" stop-color="#4ac3e9"/></linearGradient><clipPath id="clip-path"><path class="cls-1" d="M47.7,8.35H302.19A37.26,37.26,0,0,1,339.45,45.6V393.28a37.81,37.81,0,0,1-37.82,37.81H48.51A39.5,39.5,0,0,1,9,391.59V47A38.69,38.69,0,0,1,47.7,8.35Z"/></clipPath><clipPath id="clip-path-2"><rect class="cls-1" x="-411.91" y="-13.65" width="330.43" height="422.75" rx="38.23"/></clipPath></defs><title>quees1</title><rect class="cls-2" x="9.01" y="8.35" width="330.43" height="422.75" rx="38.46"/><g class="cls-3"><circle id="Ellipse_1_copy_4" data-name="Ellipse 1 copy 4" class="cls-4" cx="337.29" cy="7.05" r="349.84"/><circle id="Ellipse_1_copy_3" data-name="Ellipse 1 copy 3" class="cls-4" cx="337.72" cy="7.48" r="288.16"/><circle id="Ellipse_1_copy_2" data-name="Ellipse 1 copy 2" class="cls-4" cx="338.15" cy="7.91" r="219.57"/><circle id="Ellipse_1_copy" data-name="Ellipse 1 copy" class="cls-4" cx="338.58" cy="8.35" r="157.88"/><circle class="cls-5" cx="339.01" cy="8.78" r="92.75"/></g><g class="cls-6"><circle id="Ellipse_1_copy_4-2" data-name="Ellipse 1 copy 4" class="cls-7" cx="-83.64" cy="-14.95" r="349.84"/><circle id="Ellipse_1_copy_3-2" data-name="Ellipse 1 copy 3" class="cls-7" cx="-83.21" cy="-14.52" r="288.16"/><circle id="Ellipse_1_copy_2-2" data-name="Ellipse 1 copy 2" class="cls-7" cx="-82.78" cy="-14.09" r="219.57"/><circle id="Ellipse_1_copy-2" data-name="Ellipse 1 copy" class="cls-7" cx="-82.35" cy="-13.65" r="157.88"/><circle class="cls-8" cx="-81.91" cy="-13.22" r="92.75"/></g></svg>