<svg height="512pt" viewBox="0 0 512.11581 512" width="512pt" xmlns="http://www.w3.org/2000/svg"><path d="m5.273438 511.402344c1.03125.433594 2.140624.65625 3.261718.660156h494.929688c3.449218-.011719 6.550781-2.09375 7.871094-5.277344 1.316406-3.183594.59375-6.847656-1.839844-9.292968l-34.132813-34.132813c-3.347656-3.234375-8.671875-3.1875-11.960937.105469-3.292969 3.289062-3.339844 8.613281-.105469 11.960937l19.570313 19.570313h-39.132813v-17.066406c0-4.714844-3.820313-8.535157-8.535156-8.535157-4.710938 0-8.53125 3.820313-8.53125 8.535157v17.066406h-17.066407v-17.066406c0-4.714844-3.820312-8.535157-8.535156-8.535157-4.710937 0-8.53125 3.820313-8.53125 8.535157v17.066406h-17.070312v-17.066406c0-4.714844-3.820313-8.535157-8.53125-8.535157-4.714844 0-8.535156 3.820313-8.535156 8.535157v17.066406h-17.066407v-17.066406c0-4.714844-3.820312-8.535157-8.53125-8.535157-4.714843 0-8.535156 3.820313-8.535156 8.535157v17.066406h-17.066406v-17.066406c0-4.714844-3.820313-8.535157-8.53125-8.535157-4.714844 0-8.535157 3.820313-8.535157 8.535157v17.066406h-17.066406v-17.066406c0-4.714844-3.820312-8.535157-8.53125-8.535157-4.714844 0-8.535156 3.820313-8.535156 8.535157v17.066406h-17.066406v-17.066406c0-4.714844-3.820313-8.535157-8.535156-8.535157-4.710938 0-8.53125 3.820313-8.53125 8.535157v17.066406h-17.066407v-17.066406c0-4.714844-3.820312-8.535157-8.535156-8.535157-4.710937 0-8.53125 3.820313-8.53125 8.535157v17.066406h-17.066406v-17.066406c0-4.714844-3.820313-8.535157-8.535157-8.535157-4.710937 0-8.53125 3.820313-8.53125 8.535157v17.066406h-17.066406v-17.066406c0-4.714844-3.824218-8.535157-8.535156-8.535157s-8.535156 3.820313-8.535156 8.535157v17.066406h-90.332032l36.699219-36.699219c3.417969 1.667969 7.164063 2.542969 10.96875 2.566406 13.730469-.035156 24.988281-10.902343 25.5-24.628906l90.644531-28.328125c7.546876 10.265625 21.515626 13.375 32.703126 7.277344 11.191406-6.09375 16.152343-19.519532 11.617187-31.425782l28.121094-23.433593c4.03125 2.171875 8.046875 4.339843 12.050781 6.511719 64.953125 35.1875 126.308594 68.425781 226.027344 68.425781 4.714844 0 8.535156-3.820313 8.535156-8.535157 0-4.710937-3.820312-8.53125-8.535156-8.53125-95.394532 0-154.902344-32.234374-217.902344-66.363281-2.011719-1.089843-4.039062-2.183593-6.058594-3.273437l23.234375-19.367188c3.917969 2.378906 8.410157 3.644532 12.996094 3.671875 14.132813-.015625 25.582031-11.46875 25.597656-25.601562-.027343-4.140625-1.074219-8.210938-3.042969-11.851563l69.753907-75.570312c11.542969 5.019531 25.023437.871094 31.746093-9.773438 6.722657-10.640625 4.679688-24.59375-4.8125-32.863281l50.417969-126.042969c.339844.015625.664063.101563 1.003907.101563 13.054687.058593 24.0625-9.714844 25.546874-22.679688 1.488282-12.96875-7.015624-24.980469-19.742187-27.878906-12.726563-2.902344-25.597656 4.238281-29.875 16.570313-168.804687 3.070312-230.257813 115.796874-284.496094 215.484374-11.015625 20.246094-21.65625 39.800782-32.765625 57.753907-41.746094-11.246094-84.769531-17.035157-128-17.21875v-17.230469h17.066406c4.714844 0 8.535157-3.820312 8.535157-8.535156 0-4.710938-3.820313-8.53125-8.535157-8.53125h-17.066406v-17.066406h17.066406c4.714844 0 8.535157-3.820313 8.535157-8.535157 0-4.710937-3.820313-8.53125-8.535157-8.53125h-17.066406v-17.070312h17.066406c4.714844 0 8.535157-3.820313 8.535157-8.53125 0-4.714844-3.820313-8.535157-8.535157-8.535157h-17.066406v-17.066406h17.066406c4.714844 0 8.535157-3.820312 8.535157-8.53125 0-4.714844-3.820313-8.535156-8.535157-8.535156h-17.066406v-17.066406h17.066406c4.714844 0 8.535157-3.820313 8.535157-8.53125 0-4.714844-3.820313-8.535156-8.535157-8.535156h-17.066406v-17.066407h17.066406c4.714844 0 8.535157-3.820312 8.535157-8.53125 0-4.714843-3.820313-8.535156-8.535157-8.535156h-17.066406v-39.132813l19.566406 19.566407c3.347657 3.234375 8.671876 3.1875 11.964844-.105469 3.289063-3.289062 3.335938-8.613281.101563-11.960938l-34.132813-34.132812c-2.445312-2.429688-6.109375-3.148438-9.292968-1.832031-3.179688 1.316406-5.2617192 4.417969-5.273438 7.863281v494.933594c.015625 3.449218 2.089844 6.550781 5.273438 7.875zm71.527343-67.609375c-2.261719.003906-4.429687-.898438-6.027343-2.496094v-.007813h-.003907c-2.875-2.878906-3.3125-7.386718-1.050781-10.765624 2.265625-3.382813 6.601562-4.691407 10.359375-3.132813 3.753906 1.558594 5.886719 5.558594 5.089844 9.546875s-4.300781 6.859375-8.367188 6.855469zm136.53125-42.664063c-4.710937 0-8.53125-3.820312-8.53125-8.535156 0-4.710938 3.820313-8.53125 8.53125-8.53125 4.714844 0 8.535157 3.820312 8.535157 8.53125-.007813 4.710938-3.824219 8.527344-8.535157 8.535156zm12.996094-30.464844c-3.921875-2.375-8.410156-3.644531-12.996094-3.667968-13.734375.03125-24.992187 10.902344-25.5 24.628906l-90.636719 28.324219c-7.820312-10.601563-22.433593-13.5-33.707031-6.675781-11.273437 6.824218-15.488281 21.113281-9.71875 32.960937l-36.703125 36.695313v-82.234376c63.410156-3.144531 102.722656-40.636718 135.367188-90.199218 33.449218 10.648437 65.820312 24.4375 96.675781 41.183594zm89.40625-54.871093c-4.714844 0-8.535156-3.820313-8.535156-8.53125 0-4.714844 3.820312-8.535157 8.535156-8.535157 4.710937 0 8.53125 3.820313 8.53125 8.535157-.003906 4.710937-3.820313 8.527343-8.53125 8.53125zm102.398437-110.929688c-4.710937 0-8.53125-3.820312-8.53125-8.535156 0-4.710937 3.820313-8.535156 8.53125-8.535156 4.714844 0 8.535157 3.824219 8.535157 8.535156-.007813 4.710937-3.824219 8.527344-8.535157 8.535156zm68.265626-187.734375c4.714843 0 8.535156 3.820313 8.535156 8.53125 0 4.714844-3.820313 8.535156-8.535156 8.535156-4.710938 0-8.53125-3.820312-8.53125-8.535156.003906-4.707031 3.824218-8.527344 8.53125-8.53125zm-293.574219 223.78125c54.5-100.167968 110.898437-203.625 269.59375-206.574218 1.460937 4.027343 3.917969 7.621093 7.140625 10.453124l-50.417969 126.039063c-.34375-.015625-.664063-.101563-1.007813-.101563-14.132812.015626-25.582031 11.46875-25.597656 25.601563.027344 4.140625 1.074219 8.210937 3.042969 11.851563l-69.753906 75.570312c-9.390625-4.132812-20.34375-2.222656-27.777344 4.847656-7.4375 7.070313-9.898437 17.910156-6.246094 27.5l-28.515625 23.761719c-32.351562-17.867187-66.285156-32.714844-101.367187-44.347656 10.613281-17.40625 20.710937-35.855469 30.90625-54.601563zm-57.554688 64.695313c-29.636719 43.824219-64.214843 75-118.203125 78.019531v-59.296875h17.066406c4.714844 0 8.535157-3.820313 8.535157-8.535156 0-4.710938-3.820313-8.53125-8.535157-8.53125h-17.066406v-16.902344c39.875.226563 79.574219 5.347656 118.203125 15.246094zm0 0"/></svg>