<svg height="503pt" viewBox="0 0 503 503.90302" width="503pt" xmlns="http://www.w3.org/2000/svg"><path d="m496.792969 345.605469-62.515625-181.597657c-.070313-.324218-.160156-.644531-.269532-.957031l-3.609374-10.492187c-.066407-.199219-.394532-.984375-.484376-1.179688-5.925781-13.613281-15.375-25.402344-27.371093-34.148437l-36.648438-86.09375-.363281-.820313c-9.507812-21.894531-33.074219-34.113281-56.445312-29.257812-23.375 4.851562-40.132813 25.441406-40.136719 49.3125v113.78125c-10.324219-6.222656-23.25-6.222656-33.574219 0v-113.78125c-.007812-23.859375-16.746094-44.441406-40.105469-49.304688-23.355469-4.863281-46.921875 7.324219-56.453125 29.195313l-.382812.875-36.652344 86.089843c-11.992188 8.742188-21.4375 20.527344-27.363281 34.136719-.089844.199219-.425781.992188-.492188 1.195313l-3.605469 10.492187c-.074218.199219-.15625.53125-.238281.855469l-62.550781 181.699219c-.082031.246093-.039062.496093-.101562.742187-14.800782 40.992188-5.671876 86.808594 23.703124 119.003906 29.378907 32.191407 74.171876 45.460938 116.34375 34.460938 42.171876-10.996094 74.777344-44.453125 84.691407-86.890625 11.804687 9.011719 28.183593 9.011719 39.988281 0 9.828125 42.535156 42.445312 76.105469 84.679688 87.152344 42.230468 11.050781 87.109374-2.242188 116.511718-34.511719 29.398438-32.269531 38.46875-78.1875 23.546875-119.214844-.0625-.246094-.015625-.496094-.101562-.742187zm-82.261719-187.585938 3.425781 9.949219c.074219.324219.164063.644531.269531.960938l43.820313 127.308593-.234375-.179687c-1.660156-1.390625-3.414062-2.660156-5.148438-3.957032-1.0625-.792968-2.089843-1.621093-3.175781-2.378906-1.929687-1.339844-3.9375-2.574218-5.949219-3.808594-.972656-.59375-1.933593-1.214843-2.925781-1.78125-2.078125-1.1875-4.210937-2.28125-6.363281-3.34375-1.023438-.503906-2.039062-1.007812-3.078125-1.484374-2.140625-.980469-4.308594-1.886719-6.515625-2.738282-1.175781-.457031-2.355469-.882812-3.546875-1.300781-2.113281-.738281-4.238281-1.441406-6.402344-2.058594-1.449219-.421875-2.917969-.769531-4.382812-1.128906-1.972657-.484375-3.9375-.972656-5.949219-1.351563-1.960938-.378906-3.953125-.636718-5.945312-.910156-1.597657-.21875-3.175782-.496094-4.796876-.652344-3.691406-.355468-7.417968-.566406-11.175781-.566406-3.605469 0-7.152343.222656-10.675781.542969-.863281.078125-1.722656.160156-2.582031.257813-3.46875.394531-6.902344.886718-10.273438 1.574218-.210937.042969-.410156.101563-.617187.148438-3.203125.667968-6.339844 1.507812-9.441406 2.433594-.816407.242187-1.625.488281-2.433594.746093-3.207032 1.039063-6.371094 2.167969-9.449219 3.46875-.335937.140625-.664063.308594-1 .453125-2.804687 1.214844-5.539063 2.550782-8.230469 3.972656-.746094.390626-1.484375.78125-2.21875 1.191407-2.882812 1.605469-5.707031 3.296875-8.4375 5.128906-.398437.269531-.777344.5625-1.167968.832031-2.414063 1.664063-4.753907 3.417969-7.023438 5.257813-.644531.515625-1.292969 1.03125-1.921875 1.5625-2.507813 2.101562-4.9375 4.292969-7.257813 6.59375-.390624.386719-.757812.796875-1.136718 1.1875-2.015625 2.058593-3.949219 4.191406-5.808594 6.394531-.511719.601562-1.027344 1.195312-1.527344 1.808594-2.070312 2.550781-4.050781 5.175781-5.90625 7.898437-.328125.480469-.628906.980469-.949218 1.464844-.902344 1.363281-1.820313 2.714844-2.664063 4.113281v-140.964844c.042969-37.066406 30.082031-67.105468 67.148437-67.144531 3.332032 0 6.660157.25 9.953126.738281 2.21875.382813 4.417968.875 6.589843 1.476563.988281.253906 2.011719.386719 2.988281.683594 1.945313.585937 3.789063 1.410156 5.664063 2.167969 1.175781.476562 2.382813.847656 3.527344 1.390624 1.425781.671876 2.746093 1.53125 4.117187 2.300782 1.539063.871094 3.113282 1.679687 4.589844 2.675781 10.695312 7.164063 19.101562 17.253906 24.21875 29.066406zm-37.855469-53.820312c-3.667969-1.09375-7.410156-1.929688-11.199219-2.507813-.222656-.035156-.449218-.050781-.667968-.085937-7.074219-1.054688-14.253906-1.160157-21.355469-.3125-1 .113281-1.96875.304687-2.957031.453125-2.089844.3125-4.164063.664062-6.199219 1.125-1.125.253906-2.222656.558594-3.328125.859375-1.871094.507812-3.71875 1.070312-5.539062 1.703125-1.09375.378906-2.175782.765625-3.246094 1.1875-1.832032.722656-3.613282 1.527344-5.378906 2.371094-.953126.457031-1.917969.882812-2.847657 1.375-2.070312 1.089843-4.066406 2.28125-6.03125 3.535156-.546875.347656-1.121093.648437-1.660156 1.007812-2.460937 1.652344-4.832031 3.433594-7.105469 5.335938-.601562.503906-1.152344 1.0625-1.742187 1.582031-1.636719 1.445313-3.234375 2.925781-4.753907 4.492187-.746093.769532-1.445312 1.582032-2.160156 2.378907-1.28125 1.425781-2.519531 2.875-3.699218 4.386719-.339844.433593-.738282.824218-1.070313 1.265624v-42.589843c11.832031-15.847657 30.589844-25.011719 50.363281-24.605469 10.40625-.011719 20.667969 2.445312 29.941406 7.171875l13 30.542969c-.503906-.167969-1.019531-.277344-1.523437-.433594-.277344-.085938-.558594-.15625-.839844-.238281zm-57.367187-87.402344c13.644531.074219 25.910156 8.3125 31.140625 20.914063l6.5 15.269531c-6.816407-1.734375-13.820313-2.609375-20.851563-2.609375-18.253906-.066406-35.996094 6.027344-50.363281 17.289062v-17.289062c.019531-18.535156 15.042969-33.554688 33.574219-33.574219zm-67.144532 159.476563c9.265626.007812 16.773438 7.519531 16.785157 16.785156v163.980468c-1.144531-.65625-2.328125-1.242187-3.539063-1.757812-.085937-.035156-.15625-.085938-.238281-.121094-1.800781-.738281-3.660156-1.316406-5.5625-1.730468-.472656-.105469-.941406-.199219-1.421875-.285157-3.976562-.8125-8.074219-.8125-12.050781 0-.480469.082031-.949219.179688-1.421875.285157-1.898438.414062-3.761719.992187-5.5625 1.730468-.082032.035156-.15625.085938-.238282.121094-1.210937.515625-2.394531 1.101562-3.539062 1.757812v-163.980468c.011719-9.265625 7.519531-16.777344 16.789062-16.785156zm-98.335937-138.449219.359375-.8125c6.335938-14.597657 22.046875-22.75 37.632812-19.515625 15.585938 3.230468 26.761719 16.957031 26.769532 32.875v17.289062c-14.367188-11.261718-32.109375-17.355468-50.363282-17.289062-7.03125 0-14.035156.875-20.851562 2.609375zm-28.539063 67.046875 13-30.542969c9.273438-4.722656 19.53125-7.183594 29.9375-7.171875 19.777344-.40625 38.53125 8.761719 50.363282 24.613281v42.585938c-.335938-.441407-.730469-.828125-1.070313-1.265625-1.175781-1.503906-2.414062-2.957032-3.691406-4.378906-.71875-.800782-1.421875-1.613282-2.167969-2.386719-1.519531-1.5625-3.117187-3.042969-4.75-4.484375-.589844-.523438-1.140625-1.082032-1.746094-1.589844-2.273437-1.898438-4.644531-3.679688-7.101562-5.332031-.542969-.363281-1.125-.667969-1.679688-1.019531-1.960937-1.25-3.953124-2.441407-6.019531-3.523438-.929687-.492188-1.894531-.917969-2.84375-1.375-1.761719-.84375-3.550781-1.648438-5.382812-2.371094-1.070313-.417968-2.152344-.808594-3.246094-1.191406-1.816406-.628906-3.660156-1.191406-5.53125-1.699219-1.105469-.300781-2.207031-.601562-3.332031-.859375-2.035156-.460937-4.105469-.8125-6.195313-1.125-.988281-.148437-1.960937-.339844-2.960937-.453125-7.101563-.847656-14.285156-.742187-21.359375.316407-.222657.027343-.445313.042968-.664063.078124-3.789062.574219-7.535156 1.414063-11.207031 2.511719-.277344.082031-.554687.148438-.832031.234375-.5.148438-1.019532.265625-1.523438.429688zm-39.179687 64.058594c.089844-.277344.167969-.5625.230469-.851563l3.480468-10.050781c5.105469-11.824219 13.515626-21.921875 24.214844-29.085938 1.445313-.972656 2.984375-1.761718 4.488282-2.617187 1.398437-.789063 2.75-1.660157 4.207031-2.347657 1.121093-.535156 2.3125-.898437 3.460937-1.367187 1.890625-.769531 3.757813-1.59375 5.722656-2.191406.96875-.292969 1.984376-.429688 2.96875-.679688 2.175782-.605469 4.382813-1.097656 6.605469-1.480469 3.296875-.488281 6.621094-.738281 9.953125-.738281 37.066406.039063 67.105469 30.078125 67.148438 67.144531v140.96875c-.84375-1.402343-1.765625-2.753906-2.664063-4.113281-.320312-.484375-.621093-.988281-.949219-1.46875-1.855468-2.71875-3.835937-5.34375-5.910156-7.894531-.496094-.613281-1.011718-1.207031-1.523437-1.808594-1.859375-2.203125-3.796875-4.332031-5.808594-6.394531-.386719-.390625-.75-.800781-1.136719-1.1875-2.320312-2.304687-4.75-4.492187-7.257812-6.597656-.632813-.53125-1.277344-1.042969-1.921875-1.5625-2.277344-1.832031-4.617188-3.582031-7.023438-5.253907-.394531-.269531-.769531-.566406-1.167969-.832031-2.726562-1.832031-5.554687-3.523437-8.4375-5.132812-.734374-.40625-1.476562-.796875-2.21875-1.191407-2.6875-1.417968-5.425781-2.753906-8.230468-3.96875-.335938-.144531-.660156-.3125-1-.457031-3.078125-1.296875-6.242188-2.429687-9.449219-3.464843-.808594-.261719-1.617187-.503907-2.433594-.75-3.101562-.921876-6.242187-1.761719-9.441406-2.433594-.207031-.042969-.410156-.101563-.617187-.144532-3.371094-.691406-6.808594-1.183593-10.273438-1.574218-.859375-.097656-1.71875-.183594-2.582031-.257813-3.523438-.324219-7.070313-.546875-10.675781-.546875-3.757813 0-7.480469.210938-11.171876.566406-1.628906.15625-3.214843.433594-4.824218.65625-1.980469.273438-3.960938.53125-5.910156.902344-2.019532.386719-3.996094.875-5.976563 1.359375-1.457031.359375-2.914063.707031-4.351563 1.121094-2.175781.621094-4.308593 1.324219-6.429687 2.066406-1.183594.414063-2.351563.839844-3.519531 1.292969-2.210938.855469-4.390625 1.761719-6.535156 2.742188-1.035157.476562-2.050782.980468-3.074219 1.484374-2.148438 1.0625-4.277344 2.152344-6.351563 3.339844-1.007812.574219-1.984375 1.203125-2.976562 1.808594-1.992188 1.222656-3.976563 2.441406-5.890625 3.773438-1.140625.789062-2.21875 1.664062-3.332031 2.492187-1.679688 1.261719-3.375 2.484375-4.980469 3.828125-.085938.070312-.179688.132812-.265625.203125zm31.757813 317.898437c-33.5625.035156-64.929688-16.664063-83.640626-44.527344-18.707031-27.863281-22.289062-63.222656-9.550781-94.273437.25-.617188.503907-1.234375.761719-1.84375 1.144531-2.636719 2.378906-5.226563 3.734375-7.742188.070313-.125.128906-.257812.199219-.386718 1.535156-2.820313 3.203125-5.558594 4.992187-8.214844l.035157-.046875c1.640624-2.421875 3.410156-4.746094 5.246093-7.011719.476563-.585938.96875-1.152344 1.457031-1.726562 1.417969-1.667969 2.898438-3.285157 4.417969-4.859376.667969-.6875 1.324219-1.382812 2.007813-2.046874 1.492187-1.457032 3.046875-2.839844 4.621094-4.203126.707031-.605468 1.378906-1.253906 2.101562-1.839843 2.050781-1.679688 4.183594-3.25 6.363281-4.761719 1.285157-.890625 2.617188-1.707031 3.941407-2.539062 1.066406-.671876 2.132812-1.328126 3.226562-1.960938 1.457031-.835938 2.9375-1.640625 4.441406-2.40625 1.019532-.519531 2.054688-1.007812 3.089844-1.492188 1.574219-.738281 3.140625-1.476562 4.753906-2.132812 1.050782-.429688 2.132813-.785156 3.203125-1.175781 2.640625-.972657 5.328125-1.835938 8.058594-2.585938 1.53125-.421875 3.0625-.84375 4.621094-1.191406 1.292969-.292969 2.601562-.53125 3.910156-.769531 1.84375-.335938 3.707031-.621094 5.585937-.855469 1.089844-.136719 2.167969-.285156 3.265626-.386719 3.019531-.273437 6.066406-.460937 9.15625-.460937 55.628906 0 100.722656 45.09375 100.722656 100.722656 0 55.625-45.09375 100.71875-100.722656 100.71875zm134.296874-83.933594c-9.273437 0-16.789062-7.515625-16.789062-16.785156 0-9.273437 7.515625-16.789063 16.789062-16.789063 9.269532 0 16.785157 7.515626 16.785157 16.789063-.011719 9.265625-7.519531 16.773437-16.785157 16.785156zm134.292969 83.933594c-55.625 0-100.722656-45.09375-100.722656-100.71875 0-55.628906 45.097656-100.722656 100.722656-100.722656 3.09375 0 6.136719.1875 9.160157.464843 1.089843.101563 2.179687.246094 3.265624.382813 1.878907.234375 3.742188.519531 5.585938.855469 1.308594.242187 2.613281.480468 3.910156.769531 1.558594.347656 3.089844.773437 4.625 1.191406 2.71875.753907 5.398438 1.613281 8.035156 2.582031 1.074219.394532 2.164063.75 3.21875 1.179688 1.609376.65625 3.179688 1.398438 4.75 2.132812 1.039063.488282 2.074219.972657 3.09375 1.492188 1.5.765625 2.980469 1.570312 4.441407 2.410156 1.089843.628906 2.15625 1.292969 3.222656 1.960938 1.328125.828125 2.660156 1.648437 3.945313 2.535156 2.183593 1.511719 4.3125 3.085938 6.363281 4.761719.722656.589843 1.394531 1.234375 2.097656 1.839843 1.578125 1.363282 3.132813 2.746094 4.621094 4.203126.6875.667968 1.34375 1.359374 2.011719 2.046874 1.523437 1.574219 3 3.191407 4.421874 4.867188.484376.570312.972657 1.136719 1.449219 1.71875 1.839844 2.269531 3.609375 4.59375 5.25 7.019531l.03125.042969c1.792969 2.652344 3.457031 5.390625 4.996094 8.214844.070313.128906.128906.261718.195313.386718 1.359374 2.519532 2.59375 5.105469 3.734374 7.742188.265626.609375.511719 1.226562.765626 1.84375 12.734374 31.050781 9.152343 66.40625-9.554688 94.269531s-50.074219 44.5625-83.636719 44.527344zm0 0"/><path d="m445.914062 326.933594c-.046874-.050782-.0625-.121094-.113281-.167969s-.117187-.0625-.167969-.113281c-32.941406-32.882813-86.296874-32.867188-119.222656.035156-32.925781 32.90625-32.972656 86.261719-.105468 119.226562 32.863281 32.960938 86.21875 33.074219 119.222656.246094s33.175781-86.183594.386718-119.222656zm-59.457031-7.972656c14.902344 0 29.371094 4.992187 41.109375 14.171874l-44.585937 44.582032h-63.082031c4.25-33.539063 32.753906-58.699219 66.558593-58.753906zm-66.558593 75.539062h58.164062v58.171875c-30.375-3.871094-54.292969-27.792969-58.164062-58.171875zm74.953124 58.171875v-63.089844l44.582032-44.582031c14.835937 19.015625 18.300781 44.539062 9.074218 66.824219-9.226562 22.28125-29.722656 37.886719-53.65625 40.847656zm0 0"/><path d="m126.269531 159.550781c1.832031 0 3.617188-.601562 5.074219-1.714843 2.070312-1.570313 4.316406-2.894532 6.695312-3.945313 4.1875-1.898437 6.066407-6.816406 4.210938-11.027344-1.855469-4.207031-6.753906-6.140625-10.980469-4.332031-3.585937 1.582031-6.972656 3.574219-10.089843 5.945312-2.871094 2.179688-4.023438 5.949219-2.871094 9.363282 1.152344 3.414062 4.355468 5.710937 7.960937 5.707031zm0 0"/><path d="m95.925781 217.785156c2.101563.726563 4.410157.585938 6.410157-.390625 2.003906-.980469 3.53125-2.710937 4.253906-4.820312l10.820312-31.433594c1.070313-2.859375.507813-6.078125-1.476562-8.402344-1.984375-2.320312-5.074219-3.382812-8.066406-2.773437-2.992188.613281-5.414063 2.804687-6.328126 5.71875l-10.820312 31.4375c-1.503906 4.382812.824219 9.152344 5.207031 10.664062zm0 0"/><path d="m117.867188 302.171875c-26.617188-.007813-51.660157 12.609375-67.488282 34.011719-15.828125 21.398437-20.5625 49.039062-12.761718 74.484375l.03125.117187c12.679687 41.222656 54.535156 66.125 96.8125 57.601563 42.28125-8.523438 71.214843-47.703125 66.929687-90.617188-4.285156-42.914062-40.394531-75.597656-83.523437-75.597656zm0 151.082031c-27.195313-.03125-51.691407-16.445312-62.0625-41.585937l18.417968-13.808594 20.144532 26.859375c1.523437 2.039062 3.894531 3.273438 6.441406 3.355469h.273437c2.449219.003906 4.773438-1.070313 6.367188-2.929688l42.136719-49.160156 2.738281 5.484375c1.34375 2.683594 4.011719 4.445312 7.007812 4.625 2.992188.179688 5.855469-1.25 7.507813-3.753906s1.84375-5.699219.5-8.378906l-8.386719-16.773438v-.015625c-.464844-.882813-1.085937-1.675781-1.832031-2.339844-.085938-.085937-.121094-.199219-.214844-.277343-.109375-.09375-.25-.117188-.367188-.203126-.683593-.539062-1.445312-.964843-2.265624-1.265624-.128907-.046876-.242188-.125-.371094-.167969-.796875-.25-1.625-.378907-2.460938-.382813h-16.789062c-4.632813 0-8.390625 3.757813-8.390625 8.390625.03125 4.113281 3.074219 7.578125 7.148437 8.144531l-31.894531 37.207032-18.902344-25.207032c-1.332031-1.78125-3.320312-2.960937-5.527343-3.273437-2.203126-.316406-4.441407.257813-6.222657 1.597656l-19.621093 14.710938c-3.3125-27.683594 10.832031-54.53125 35.539062-67.453125 24.703125-12.921875 54.824219-9.226563 75.675781 9.28125 20.847657 18.511718 28.085938 47.980468 18.179688 74.042968s-34.890625 43.289063-62.769531 43.277344zm0 0"/></svg>