<svg height="512pt" viewBox="0 0 512.10609 512" width="512pt" xmlns="http://www.w3.org/2000/svg"><path d="m411.695312 476.871094-.019531-.007813c-8.457031-4.503906-16.914062-9.050781-25.164062-13.675781-10.132813-6.269531-21.265625-10.742188-32.917969-13.226562-5.363281-1.132813-10.507812-3.136719-15.21875-5.933594-4.507812-2.476563-9.1875-4.625-14.003906-6.425782v-17.878906c7.824218-7.5625 13.542968-17.03125 16.59375-27.476562.550781.171875 1.117187.285156 1.691406.339844h17.066406c4.714844 0 8.535156-3.820313 8.535156-8.53125 0-4.714844-3.820312-8.535157-8.535156-8.535157h-16.472656c.082031-3.507812-.011719-6.980469-.15625-10.433593 11.71875-8.78125 19.578125-21.761719 21.921875-36.214844 3.78125-35.242188-4.667969-39.511719-7.84375-41.117188-2.140625-.917968-4.421875-1.464844-6.742187-1.621094.207031-9.183593.054687-19.269531-.464844-30.464843-2.648438-57.757813-58.40625-75.230469-87.863282-76.414063l-12.339843.007813c-16.019531.84375-31.671875 5.089843-45.917969 12.457031l-7.308594-7.300781c-3.347656-3.234375-8.667968-3.1875-11.960937.101562-3.292969 3.292969-3.339844 8.613281-.105469 11.964844l4.765625 4.761719c-16.644531 13.21875-26.542969 33.164062-26.996094 54.414062-.519531 11.203125-.671875 21.285156-.464843 30.460938h-.085938c-2.316406.007812-4.597656.570312-6.65625 1.632812-3.175781 1.605469-11.628906 5.875-7.8125 41.390625 2.398438 14.351563 10.238281 27.226563 21.890625 35.941407-2.695313 20.144531 4.242187 40.382812 18.726563 54.636718v17.878906c-4.84375 1.8125-9.546876 3.972657-14.078126 6.464844-4.683593 2.773438-9.785156 4.761719-15.109374 5.886719-11.632813 2.46875-22.75 6.925781-32.867188 13.175781-8.335938 4.675782-16.796875 9.226563-25.269531 13.734375-4 2.140625-23.382813 18.050781-23.605469 26.425781-.0625 2.300782.808594 4.53125 2.417969 6.179688 1.605469 1.652344 3.808593 2.582031 6.113281 2.585938h341.332031c2.300781-.003907 4.507813-.933594 6.113281-2.582032 1.605469-1.648437 2.480469-3.875 2.421876-6.179687-.226563-8.375-19.609376-24.28125-23.609376-26.421875zm-227.6875-122.402344c-.714843-.742188-1.558593-1.355469-2.492187-1.796875-9.125-5.722656-15.425781-15.019531-17.359375-25.617187-.796875-7.167969-.925781-14.394532-.390625-21.585938.164063.203125.328125.402344.5.625 2.296875 3.007812 6.296875 4.140625 9.832031 2.789062 3.53125-1.351562 5.753906-4.867187 5.457032-8.636718-.992188-14.582032-1.082032-29.210938-.269532-43.800782.332032-18.769531 10.191406-36.082031 26.160156-45.949218 1.1875-.40625 2.265626-1.066406 3.160157-1.941406.042969-.046876.054687-.109376.101562-.15625 12.769531-6.953126 26.890625-11.074219 41.394531-12.078126l11.660157-.007812c2.796875.117188 68.554687 3.410156 71.160156 60.132812.8125 14.589844.722656 29.21875-.269531 43.800782-.296875 3.769531 1.925781 7.285156 5.457031 8.636718 3.535156 1.351563 7.535156.21875 9.832031-2.789062.167969-.226562.335938-.433594.5-.625.539063 7.097656.417969 14.234375-.359375 21.308594-1.871093 10.628906-8.109375 19.984375-17.203125 25.792968-1.015625.453126-1.929687 1.097657-2.699218 1.898438-1.609376 1.683594-2.460938 3.949219-2.359376 6.277344l.078126 1.757812c.789062 17.320313 1.414062 31.007813-15.691407 47.273438-.082031.078125-.140625.152344-.21875.226562l-.054687.039063-.074219.078125-.105469.109375c-.921875.886719-1.679687 1.765625-2.539062 2.648437-1.296875 1.339844-2.671875 2.683594-3.839844 4.003906-.304688.351563-.542969.683594-.84375 1.027344-4.742188 5.632813-9.117188 11.566406-13.09375 17.765625-7.160156 10.820313-10.601562 15.445313-17.9375 16.433594-1.128906.144531-2.265625.214844-3.402344.210937h-23.992187c-1.136719.007813-2.273438-.0625-3.402344-.207031-7.339844-.988281-10.777344-5.613281-17.9375-16.433593-3.976563-6.199219-8.351563-12.136719-13.09375-17.769532-.300781-.34375-.539063-.675781-.84375-1.023437-1.164063-1.320313-2.539063-2.664063-3.839844-4.003907-.859375-.882812-1.617187-1.761718-2.539062-2.648437l-.105469-.109375-.074219-.078125-.054687-.039063c-.078125-.074218-.136719-.148437-.21875-.226562-17.105469-16.265625-16.480469-29.953125-15.691406-47.273438l.078124-1.757812c.097657-2.332031-.761718-4.597656-2.375-6.28125zm3.828126 101.617188v4.765624c0 4.714844 3.820312 8.535157 8.535156 8.535157 4.710937 0 8.53125-3.820313 8.53125-8.535157v-21.160156c1.269531 1.847656 2.46875 3.648438 3.621094 5.398438 8.273437 12.496094 16.085937 24.296875 35.582031 24.296875h23.992187c19.5 0 27.3125-11.800781 35.585938-24.292969 1.152344-1.75 2.351562-3.550781 3.621094-5.398438v21.15625c0 4.714844 3.820312 8.535157 8.53125 8.535157 4.714843 0 8.535156-3.820313 8.535156-8.535157v-4.765624c1.78125.816406 3.6875 1.753906 5.71875 2.867187.917968.515625 1.816406.941406 2.730468 1.414063.601563 12.695312-3.792968 25.125-12.246093 34.621093h-128.941407c-8.449218-9.496093-12.847656-21.921875-12.246093-34.621093.886719-.457032 1.765625-.871094 2.65625-1.371094 2.058593-1.128906 3.996093-2.082032 5.792969-2.910156zm-79.296876 35.839843c8.574219-4.550781 17.140626-9.164062 25.679688-13.957031 8.449219-5.261719 17.726562-9.054688 27.441406-11.207031.324219-.0625.660156-.167969.984375-.234375.457031 9.972656 3.1875 19.707031 7.980469 28.460937h-66.160156c1.253906-1.152343 2.621094-2.175781 4.074218-3.058593zm233.039063 3.0625c4.800781-8.757812 7.527344-18.492187 7.984375-28.464843.335938.066406.679688.175781 1.023438.238281 9.734374 2.171875 19.027343 5.980469 27.492187 11.257812 8.445313 4.734375 17.007813 9.351563 25.570313 13.898438 1.457031.890625 2.828124 1.917969 4.09375 3.070312zm0 0"/><path d="m418.238281.0546875c-50.179687-.015625-91.488281 39.4453125-93.773437 89.5703125-2.28125 50.125 35.269531 93.179688 85.238281 97.730469v8.964843c0 4.710938 3.820313 8.53125 8.535156 8.53125 4.710938 0 8.53125-3.820312 8.53125-8.53125v-8.964843c49.96875-4.550781 87.519531-47.605469 85.238281-97.730469-2.285156-50.125-43.59375-89.5859375-93.769531-89.5703125zm0 17.0664065c39.085938.050781 71.914063 29.425781 76.292969 68.265625h-33.628906c-3.488282 0-6.628906 2.125-7.925782 5.367187l-7.605468 19.027344-18.902344-69.304688c-.988281-3.628906-4.234375-6.179687-7.992188-6.285156-3.761718-.105468-7.144531 2.261719-8.335937 5.828125l-20.082031 60.246094-7.390625-11.082031c-1.582031-2.375-4.246094-3.796875-7.097657-3.796875h-33.628906c4.378906-38.839844 37.207032-68.214844 76.296875-68.265625zm0 153.597656c-39.089843-.050781-71.917969-29.425781-76.296875-68.265625h29.0625l14.53125 21.800781c1.808594 2.710938 5.003906 4.15625 8.234375 3.722656 3.230469-.429687 5.929688-2.664062 6.960938-5.757812l16.6875-50.066406 18.1875 66.675781c.964843 3.539063 4.082031 6.066406 7.742187 6.273437.164063.007813.332032.019532.492188.019532 3.488281-.003906 6.625-2.128906 7.921875-5.367188l14.921875-37.300781h27.847656c-4.378906 38.839844-37.207031 68.214844-76.292969 68.265625zm0 0"/><path d="m93.96875.0546875c-41.449219-.0429687-78.015625 27.1054685-89.972656 66.7890625-11.953125 39.6875 3.535156 82.519531 38.109375 105.378906 34.578125 22.855469 80.050781 20.332032 111.882812-6.210937l6.34375 6.339843c3.347657 3.246094 8.679688 3.207032 11.976563-.089843s3.335937-8.628907.089844-11.976563l-6.34375-6.339844c23.335937-27.964843 28.375-66.902343 12.925781-99.882812s-48.59375-54.0351562-85.011719-54.0078125zm-76.800781 93.8632815c0-42.414063 34.386719-76.796875 76.800781-76.796875 42.417969 0 76.800781 34.382812 76.800781 76.796875 0 42.417969-34.382812 76.800781-76.800781 76.800781-42.394531-.046875-76.75-34.402344-76.800781-76.800781zm0 0"/><path d="m232.746094 244.761719c3.34375 3.261719 8.6875 3.226562 11.988281-.074219 3.304687-3.304688 3.339844-8.648438.078125-11.992188l-12.070312-12.066406c-2.148438-2.203125-5.3125-3.078125-8.285157-2.296875-2.972656.785157-5.296875 3.105469-6.078125 6.078125-.785156 2.972656.09375 6.136719 2.292969 8.285156zm0 0"/><path d="m291.457031 392.585938h17.066407c4.714843 0 8.535156-3.820313 8.535156-8.53125 0-4.714844-3.820313-8.535157-8.535156-8.535157h-17.066407c-4.710937 0-8.53125 3.820313-8.53125 8.535157 0 4.710937 3.820313 8.53125 8.53125 8.53125zm0 0"/><path d="m405.769531 374.167969c-1.371093.886719-2.96875 1.355469-4.601562 1.351562h-7.308594c-4.714844 0-8.535156 3.820313-8.535156 8.535157 0 4.710937 3.820312 8.53125 8.535156 8.53125h7.308594c4.914062.003906 9.722656-1.40625 13.851562-4.066407 3.960938-2.554687 5.105469-7.835937 2.550781-11.800781-2.554687-3.960938-7.835937-5.101562-11.800781-2.550781zm0 0"/><path d="m418.238281 256.054688c4.710938 0 8.53125-3.820313 8.53125-8.535157v-17.066406c0-4.710937-3.820312-8.535156-8.53125-8.535156-4.714843 0-8.535156 3.824219-8.535156 8.535156v17.066406c0 4.714844 3.820313 8.535157 8.535156 8.535157zm0 0"/><path d="m409.703125 349.917969c0 4.714843 3.820313 8.535156 8.535156 8.535156 4.710938 0 8.53125-3.820313 8.53125-8.535156v-17.066407c0-4.710937-3.820312-8.53125-8.53125-8.53125-4.714843 0-8.535156 3.820313-8.535156 8.53125zm0 0"/><path d="m409.703125 298.71875c0 4.714844 3.820313 8.535156 8.535156 8.535156 4.710938 0 8.53125-3.820312 8.53125-8.535156v-17.066406c0-4.710938-3.820312-8.53125-8.53125-8.53125-4.714843 0-8.535156 3.820312-8.535156 8.53125zm0 0"/><path d="m136.636719 435.253906c4.710937 0 8.53125-3.820312 8.53125-8.535156 0-4.710938-3.820313-8.53125-8.53125-8.53125h-114.191407l29.539063-59.085938 17.605469 29.34375c1.519531 2.753907 4.507812 4.371094 7.644531 4.132813 3.113281-.121094 5.910156-1.925781 7.304687-4.707031l42.667969-85.335938c1.363281-2.726562 1.167969-5.972656-.511719-8.515625-1.679687-2.546875-4.589843-4-7.632812-3.820312-3.042969.183593-5.757812 1.976562-7.121094 4.703125l-35.722656 71.433594-17.601562-29.339844c-1.546876-2.730469-4.515626-4.332032-7.648438-4.132813-3.109375.117188-5.910156 1.921875-7.300781 4.707031l-26.5 53v-100.382812c0-4.714844-3.820313-8.535156-8.53125-8.535156-4.714844 0-8.535157 3.820312-8.535157 8.535156v136.53125c.050782.402344.132813.796875.242188 1.1875.054688.613281.175781 1.222656.363281 1.8125.21875.488281.484375.960938.792969 1.398438.257812.484374.566406.9375.914062 1.359374.433594.421876.914063.796876 1.429688 1.117188.304688.277344.632812.53125.976562.757812.074219.039063.160157.023438.238282.058594 1.097656.527344 2.300781.8125 3.519531.832032l.050781.011718zm0 0"/><path d="m122.070312 53.753906-68.265624 68.265625c-2.21875 2.144531-3.109376 5.316407-2.328126 8.300781.78125 2.980469 3.109376 5.3125 6.09375 6.09375 2.984376.78125 6.15625-.109374 8.300782-2.328124l68.265625-68.265626c2.21875-2.144531 3.109375-5.316406 2.328125-8.300781-.78125-2.980469-3.113282-5.3125-6.097656-6.09375-2.980469-.78125-6.15625.109375-8.296876 2.328125zm0 0"/><path d="m136.636719 128.054688c0 4.710937-3.820313 8.53125-8.535157 8.53125-4.710937 0-8.53125-3.820313-8.53125-8.53125 0-4.714844 3.820313-8.535157 8.53125-8.535157 4.714844 0 8.535157 3.820313 8.535157 8.535157zm0 0"/><path d="m68.371094 59.785156c0 4.714844-3.820313 8.535156-8.535156 8.535156-4.710938 0-8.53125-3.820312-8.53125-8.535156 0-4.710937 3.820312-8.53125 8.53125-8.53125 4.714843 0 8.535156 3.820313 8.535156 8.53125zm0 0"/></svg>