<svg height="503pt" viewBox="0 0 503.95835 503" width="503pt" xmlns="http://www.w3.org/2000/svg"><path d="m369.304688 185.136719c-.007813-21.984375-7.253907-43.347657-20.613282-60.804688-.183594-.273437-.382812-.539062-.59375-.792969-31.269531-40.589843-88.054687-51.183593-131.855468-24.59375-43.800782 26.585938-60.605469 81.855469-39.019532 128.324219.136719.347657.300782.6875.488282 1.015625 20.152343 42.558594 67.125 65.453125 113.066406 55.109375 45.941406-10.347656 78.5625-51.167969 78.527344-98.257812zm-100.722657-83.9375c23.726563.015625 46.335938 10.109375 62.1875 27.761719l-15.050781 21.070312-19.300781-6.433594c-3.679688-1.21875-7.710938.230469-9.773438 3.511719l-35.695312 57.101563-26.175781-32.714844c-1.644532-2.054688-4.152344-3.214844-6.785157-3.144532-2.628906.074219-5.070312 1.371094-6.597656 3.511719l-24.109375 33.753907c-6.453125-25.082032-.910156-51.742188 15-72.175782 15.914062-20.4375 40.398438-32.34375 66.300781-32.242187zm0 167.871093c-31.058593-.03125-59.5625-17.199218-74.113281-44.636718l24.136719-33.78125 26.636719 33.292968c1.703124 2.125 4.328124 3.296876 7.042968 3.136719 2.71875-.15625 5.1875-1.621093 6.628906-3.929687l38.464844-61.539063 18.910156 6.304688c3.496094 1.167969 7.347657-.082031 9.484376-3.085938l15.429687-21.601562c15.054687 25.945312 15.089844 57.953125.097656 83.933593-14.992187 25.976563-42.726562 41.960938-72.71875 41.90625zm0 0"/><path d="m452.21875 312.902344-17.800781-17.800782c-4.265625-4.082031-10.339844-5.671874-16.058594-4.199218l-7.96875-7.96875c18.269531-29.257813 27.347656-63.324219 26.058594-97.796875 0-108.722657-82.835938-184.65625-201.441407-184.65625-106.566406 0-193.050781 96.5-193.050781 159.472656-1.480469 17.394531-6.09375 34.378906-13.625 50.128906-2.878906 6.347657-1.5 13.816407 3.453125 18.71875l7.960938 8.054688-36.15625 61.472656c-4.105469 6.839844-4.726563 15.222656-1.671875 22.589844 3.050781 7.371093 9.414062 12.859375 17.15625 14.796875.609375.148437 1.234375.234375 1.863281.25l4.234375.085937v11.769531c-.023437 6.363282 3.578125 12.1875 9.277344 15.015626l4.640625 2.320312-2.761719 5.527344c-2.347656 4.726562-2.347656 10.28125 0 15.007812l3.445313 6.898438c.863281 1.824218 1.011718 3.90625.414062 5.835937-1.617188 5.703125-2.433594 11.601563-2.425781 17.527344-.722657 12.453125 3.910156 24.617187 12.726562 33.4375 8.820313 8.820313 20.988281 13.449219 33.4375 12.726563h44.628907c3.628906-.085938 6.898437 2.195312 8.066406 5.636718 2.640625 8.164063 6.117187 16.035156 10.375 23.484375 4.457031 7.941407 12.855468 12.855469 21.964844 12.847657h217.128906c5.792968.011718 11.183594-2.96875 14.253906-7.882813s3.382812-11.0625.828125-16.265625c-1.105469-2.257812-2.386719-4.785156-3.785156-7.546875-10.5-20.75-28.082031-55.488281-28.082031-85.8125-.519532-20.257813 3.933593-40.332031 12.964843-58.472656-.148437.859375-.234375 1.730469-.25 2.601562-.011719 4.453125 1.757813 8.726563 4.917969 11.867188l17.800781 17.800781 41.546875 41.542969c8.4375 8.695312 20.902344 12.171875 32.625 9.097656 11.71875-3.078125 20.871094-12.230469 23.945313-23.949219 3.078125-11.71875-.398438-24.1875-9.09375-32.625zm-65.257812-5.90625-5.964844-5.96875 11.871094-11.871094.925781.921875 10.949219 10.953125-11.871094 11.871094zm-45.496094-29.855469c-48.0625 38.117187-117.328125 33.007813-159.269532-11.753906-41.945312-44.765625-42.550781-114.214844-1.390624-159.699219 41.164062-45.484375 110.328124-51.796875 159.042968-14.519531 48.71875 37.28125 60.699219 105.691406 27.550782 157.3125-.824219 1.285156-1.660157 2.5625-2.53125 3.8125-1.398438 2.003906-2.863282 3.960937-4.386719 5.867187-.796875 1.007813-1.605469 1.996094-2.433594 2.972656-1.699219 1.992188-3.457031 3.929688-5.28125 5.804688-.808594.832031-1.628906 1.652344-2.460937 2.457031-1.871094 1.8125-3.800782 3.566407-5.785157 5.257813-1 .847656-2.023437 1.671875-3.054687 2.488281zm17.894531 6.671875c1.992187-1.832031 3.960937-3.683594 5.839844-5.632812 1.683593-1.75 3.308593-3.542969 4.894531-5.386719 1.847656-2.136719 3.597656-4.351563 5.308594-6.601563.925781-1.222656 1.988281-2.320312 2.875-3.578125l8.628906 8.710938.027344.027343-23.742188 23.742188-7.558594-7.683594c1.316407-1.121094 2.453126-2.425781 3.726563-3.597656zm-6.84375 102.765625c0 34.328125 18.71875 71.300781 29.894531 93.394531 1.363282 2.695313 2.613282 5.164063 3.679688 7.328125h-217.128906c-3.027344.011719-5.820313-1.613281-7.308594-4.25-3.664063-6.382812-6.660156-13.125-8.949219-20.121093-3.328125-10.519532-13.113281-17.652344-24.148437-17.597657h-44.628907c-7.996093.742188-15.90625-2.113281-21.585937-7.792969-5.679688-5.675781-8.535156-13.589843-7.789063-21.585937-.003906-4.367187.59375-8.71875 1.777344-12.925781 1.757813-5.964844 1.207031-12.375-1.542969-17.953125l-3.441406-6.890625 6.515625-13.03125c.996094-1.992188 1.160156-4.296875.457031-6.410156-.703125-2.113282-2.21875-3.855469-4.210937-4.851563l-12.148438-6.074219v-11.765625c-.050781-9.117187-7.328125-16.546875-16.441406-16.789062l-3.125-.0625c-2.390625-.839844-4.273437-2.71875-5.121094-5.105469-.847656-2.386719-.574219-5.03125.75-7.191406l36.15625-61.464844c3.972657-6.601562 2.933594-15.066406-2.523437-20.507812l-7.996094-7.988282c8.578125-17.871094 13.699219-37.207031 15.089844-56.988281 0-55.042969 80.667968-142.6875 176.261718-142.6875 108.722657 0 184.65625 69.027344 184.65625 167.871094.90625 27.320312-5.183593 54.417969-17.695312 78.722656-.085938-.167969-.242188-.292969-.332031-.457031-.742188-1.421875-1.6875-2.730469-2.800781-3.882813l-.003907-.007812-11.578125-11.683594c31.785156-59.945313 14.027344-134.175781-41.449218-173.242187-55.472657-39.066407-131.347657-30.777344-177.078126 19.34375-45.730468 50.125-47.042968 126.4375-3.0625 178.105468 43.976563 51.667969 119.519532 62.5625 176.304688 25.429688l9.355469 9.496094c.996093.96875 2.105469 1.8125 3.308593 2.507812.199219.117188.398438.214844.601563.324219 1.097656.597656 2.261719 1.070312 3.46875 1.40625.117187.03125.230469.074219.347656.105469 2.636719.746093 5.421875.769531 8.070313.0625.140625-.03125.285156-.015626.421875-.050782l2.992187 2.988282c-12.382812 22.039062-18.605468 47.003906-18.019531 72.273437zm70.03125-79.617187 11.867187 11.871093-23.742187 23.742188-11.871094-11.871094zm59.347656 83.09375c-6.640625 6.34375-17.097656 6.34375-23.738281 0l-35.613281-35.613282 23.738281-23.738281 35.613281 35.613281c3.148438 3.144532 4.917969 7.414063 4.917969 11.867188s-1.769531 8.722656-4.917969 11.871094zm0 0"/></svg>